<?xml version="1.0"?><svg xmlns="http://www.w3.org/2000/svg" width="269" height="269"><rect x="0" y="0" width="100%" height="100%" fill="rgb(108, 92, 231)" /><polyline points="0, 0, 33.666666666667, 33.666666666667, 0, 33.666666666667, 0, 0" stroke="#000" stroke-opacity="0.02" fill-opacity="0.089333333333333" fill="#ddd" transform="translate(0, 33.666666666667) scale(1, -1)" /><polyline points="0, 0, 33.666666666667, 33.666666666667, 0, 33.666666666667, 0, 0" stroke="#000" stroke-opacity="0.02" fill-opacity="0.089333333333333" fill="#ddd" transform="translate(67.333333333333, 33.666666666667) scale(-1, -1)" /><polyline points="0, 0, 33.666666666667, 33.666666666667, 0, 33.666666666667, 0, 0" stroke="#000" stroke-opacity="0.02" fill-opacity="0.089333333333333" fill="#ddd" transform="translate(0, 33.666666666667) scale(1, 1)" /><polyline points="0, 0, 33.666666666667, 33.666666666667, 0, 33.666666666667, 0, 0" stroke="#000" stroke-opacity="0.02" fill-opacity="0.089333333333333" fill="#ddd" transform="translate(67.333333333333, 33.666666666667) scale(-1, 1)" /><polyline points="0, 0, 33.666666666667, 33.666666666667, 0, 33.666666666667, 0, 0" stroke="#000" stroke-opacity="0.02" fill-opacity="0.098" fill="#222" transform="translate(101, 0) scale(-1, 1)" /><polyline points="0, 0, 33.666666666667, 33.666666666667, 0, 33.666666666667, 0, 0" stroke="#000" stroke-opacity="0.02" fill-opacity="0.098" fill="#222" transform="translate(101, 67.333333333333) scale(1, -1)" /><polyline points="0, 0, 33.666666666667, 33.666666666667, 0, 33.666666666667, 0, 0" stroke="#000" stroke-opacity="0.02" fill-opacity="0.13266666666667" fill="#222" transform="translate(101, 67.333333333333) scale(-1, -1)" /><polyline points="0, 0, 33.666666666667, 33.666666666667, 0, 33.666666666667, 0, 0" stroke="#000" stroke-opacity="0.02" fill-opacity="0.13266666666667" fill="#222" transform="translate(101, 0) scale(1, 1)" /><polyline points="0, 0, 33.666666666667, 33.666666666667, 0, 33.666666666667, 0, 0" stroke="#000" stroke-opacity="0.02" fill-opacity="0.13266666666667" fill="#222" transform="translate(134.66666666667, 33.666666666667) scale(1, -1)" /><polyline points="0, 0, 33.666666666667, 33.666666666667, 0, 33.666666666667, 0, 0" stroke="#000" stroke-opacity="0.02" fill-opacity="0.13266666666667" fill="#222" transform="translate(202, 33.666666666667) scale(-1, -1)" /><polyline points="0, 0, 33.666666666667, 33.666666666667, 0, 33.666666666667, 0, 0" stroke="#000" stroke-opacity="0.02" fill-opacity="0.13266666666667" fill="#222" transform="translate(134.66666666667, 33.666666666667) scale(1, 1)" /><polyline points="0, 0, 33.666666666667, 33.666666666667, 0, 33.666666666667, 0, 0" stroke="#000" stroke-opacity="0.02" fill-opacity="0.13266666666667" fill="#222" transform="translate(202, 33.666666666667) scale(-1, 1)" /><polyline points="0, 0, 33.666666666667, 33.666666666667, 0, 33.666666666667, 0, 0" stroke="#000" stroke-opacity="0.02" fill-opacity="0.14133333333333" fill="#ddd" transform="translate(235.66666666667, 0) scale(-1, 1)" /><polyline points="0, 0, 33.666666666667, 33.666666666667, 0, 33.666666666667, 0, 0" stroke="#000" stroke-opacity="0.02" fill-opacity="0.14133333333333" fill="#ddd" transform="translate(235.66666666667, 67.333333333333) scale(1, -1)" /><polyline points="0, 0, 33.666666666667, 33.666666666667, 0, 33.666666666667, 0, 0" stroke="#000" stroke-opacity="0.02" fill-opacity="0.15" fill="#222" transform="translate(235.66666666667, 67.333333333333) scale(-1, -1)" /><polyline points="0, 0, 33.666666666667, 33.666666666667, 0, 33.666666666667, 0, 0" stroke="#000" stroke-opacity="0.02" fill-opacity="0.15" fill="#222" transform="translate(235.66666666667, 0) scale(1, 1)" /><polyline points="0, 0, 33.666666666667, 33.666666666667, 0, 33.666666666667, 0, 0" stroke="#000" stroke-opacity="0.02" fill-opacity="0.15" fill="#222" transform="translate(33.666666666667, 67.333333333333) scale(-1, 1)" /><polyline points="0, 0, 33.666666666667, 33.666666666667, 0, 33.666666666667, 0, 0" stroke="#000" stroke-opacity="0.02" fill-opacity="0.15" fill="#222" transform="translate(33.666666666667, 134.66666666667) scale(1, -1)" /><polyline points="0, 0, 33.666666666667, 33.666666666667, 0, 33.666666666667, 0, 0" stroke="#000" stroke-opacity="0.02" fill-opacity="0.10666666666667" fill="#ddd" transform="translate(33.666666666667, 134.66666666667) scale(-1, -1)" /><polyline points="0, 0, 33.666666666667, 33.666666666667, 0, 33.666666666667, 0, 0" stroke="#000" stroke-opacity="0.02" fill-opacity="0.10666666666667" fill="#ddd" transform="translate(33.666666666667, 67.333333333333) scale(1, 1)" /><polyline points="0, 0, 33.666666666667, 33.666666666667, 0, 33.666666666667, 0, 0" stroke="#000" stroke-opacity="0.02" fill-opacity="0.10666666666667" fill="#ddd" transform="translate(67.333333333333, 101) scale(1, -1)" /><polyline points="0, 0, 33.666666666667, 33.666666666667, 0, 33.666666666667, 0, 0" stroke="#000" stroke-opacity="0.02" fill-opacity="0.10666666666667" fill="#ddd" transform="translate(134.66666666667, 101) scale(-1, -1)" /><polyline points="0, 0, 33.666666666667, 33.666666666667, 0, 33.666666666667, 0, 0" stroke="#000" stroke-opacity="0.02" fill-opacity="0.10666666666667" fill="#ddd" transform="translate(67.333333333333, 101) scale(1, 1)" /><polyline points="0, 0, 33.666666666667, 33.666666666667, 0, 33.666666666667, 0, 0" stroke="#000" stroke-opacity="0.02" fill-opacity="0.10666666666667" fill="#ddd" transform="translate(134.66666666667, 101) scale(-1, 1)" /><polyline points="0, 0, 33.666666666667, 33.666666666667, 0, 33.666666666667, 0, 0" stroke="#000" stroke-opacity="0.02" fill-opacity="0.098" fill="#222" transform="translate(168.33333333333, 67.333333333333) scale(-1, 1)" /><polyline points="0, 0, 33.666666666667, 33.666666666667, 0, 33.666666666667, 0, 0" stroke="#000" stroke-opacity="0.02" fill-opacity="0.098" fill="#222" transform="translate(168.33333333333, 134.66666666667) scale(1, -1)" /><polyline points="0, 0, 33.666666666667, 33.666666666667, 0, 33.666666666667, 0, 0" stroke="#000" stroke-opacity="0.02" fill-opacity="0.080666666666667" fill="#222" transform="translate(168.33333333333, 134.66666666667) scale(-1, -1)" /><polyline points="0, 0, 33.666666666667, 33.666666666667, 0, 33.666666666667, 0, 0" stroke="#000" stroke-opacity="0.02" fill-opacity="0.080666666666667" fill="#222" transform="translate(168.33333333333, 67.333333333333) scale(1, 1)" /><polyline points="0, 0, 33.666666666667, 33.666666666667, 0, 33.666666666667, 0, 0" stroke="#000" stroke-opacity="0.02" fill-opacity="0.080666666666667" fill="#222" transform="translate(202, 101) scale(1, -1)" /><polyline points="0, 0, 33.666666666667, 33.666666666667, 0, 33.666666666667, 0, 0" stroke="#000" stroke-opacity="0.02" fill-opacity="0.080666666666667" fill="#222" transform="translate(269.33333333333, 101) scale(-1, -1)" /><polyline points="0, 0, 33.666666666667, 33.666666666667, 0, 33.666666666667, 0, 0" stroke="#000" stroke-opacity="0.02" fill-opacity="0.080666666666667" fill="#222" transform="translate(202, 101) scale(1, 1)" /><polyline points="0, 0, 33.666666666667, 33.666666666667, 0, 33.666666666667, 0, 0" stroke="#000" stroke-opacity="0.02" fill-opacity="0.080666666666667" fill="#222" transform="translate(269.33333333333, 101) scale(-1, 1)" /><polyline points="0, 0, 33.666666666667, 33.666666666667, 0, 33.666666666667, 0, 0" stroke="#000" stroke-opacity="0.02" fill-opacity="0.02" fill="#ddd" transform="translate(0, 168.33333333333) scale(1, -1)" /><polyline points="0, 0, 33.666666666667, 33.666666666667, 0, 33.666666666667, 0, 0" stroke="#000" stroke-opacity="0.02" fill-opacity="0.02" fill="#ddd" transform="translate(67.333333333333, 168.33333333333) scale(-1, -1)" /><polyline points="0, 0, 33.666666666667, 33.666666666667, 0, 33.666666666667, 0, 0" stroke="#000" stroke-opacity="0.02" fill-opacity="0.02" fill="#ddd" transform="translate(0, 168.33333333333) scale(1, 1)" /><polyline points="0, 0, 33.666666666667, 33.666666666667, 0, 33.666666666667, 0, 0" stroke="#000" stroke-opacity="0.02" fill-opacity="0.02" fill="#ddd" transform="translate(67.333333333333, 168.33333333333) scale(-1, 1)" /><polyline points="0, 0, 33.666666666667, 33.666666666667, 0, 33.666666666667, 0, 0" stroke="#000" stroke-opacity="0.02" fill-opacity="0.028666666666667" fill="#222" transform="translate(101, 134.66666666667) scale(-1, 1)" /><polyline points="0, 0, 33.666666666667, 33.666666666667, 0, 33.666666666667, 0, 0" stroke="#000" stroke-opacity="0.02" fill-opacity="0.028666666666667" fill="#222" transform="translate(101, 202) scale(1, -1)" /><polyline points="0, 0, 33.666666666667, 33.666666666667, 0, 33.666666666667, 0, 0" stroke="#000" stroke-opacity="0.02" fill-opacity="0.028666666666667" fill="#222" transform="translate(101, 202) scale(-1, -1)" /><polyline points="0, 0, 33.666666666667, 33.666666666667, 0, 33.666666666667, 0, 0" stroke="#000" stroke-opacity="0.02" fill-opacity="0.028666666666667" fill="#222" transform="translate(101, 134.66666666667) scale(1, 1)" /><polyline points="0, 0, 33.666666666667, 33.666666666667, 0, 33.666666666667, 0, 0" stroke="#000" stroke-opacity="0.02" fill-opacity="0.028666666666667" fill="#222" transform="translate(134.66666666667, 168.33333333333) scale(1, -1)" /><polyline points="0, 0, 33.666666666667, 33.666666666667, 0, 33.666666666667, 0, 0" stroke="#000" stroke-opacity="0.02" fill-opacity="0.028666666666667" fill="#222" transform="translate(202, 168.33333333333) scale(-1, -1)" /><polyline points="0, 0, 33.666666666667, 33.666666666667, 0, 33.666666666667, 0, 0" stroke="#000" stroke-opacity="0.02" fill-opacity="0.028666666666667" fill="#222" transform="translate(134.66666666667, 168.33333333333) scale(1, 1)" /><polyline points="0, 0, 33.666666666667, 33.666666666667, 0, 33.666666666667, 0, 0" stroke="#000" stroke-opacity="0.02" fill-opacity="0.028666666666667" fill="#222" transform="translate(202, 168.33333333333) scale(-1, 1)" /><polyline points="0, 0, 33.666666666667, 33.666666666667, 0, 33.666666666667, 0, 0" stroke="#000" stroke-opacity="0.02" fill-opacity="0.10666666666667" fill="#ddd" transform="translate(235.66666666667, 134.66666666667) scale(-1, 1)" /><polyline points="0, 0, 33.666666666667, 33.666666666667, 0, 33.666666666667, 0, 0" stroke="#000" stroke-opacity="0.02" fill-opacity="0.10666666666667" fill="#ddd" transform="translate(235.66666666667, 202) scale(1, -1)" /><polyline points="0, 0, 33.666666666667, 33.666666666667, 0, 33.666666666667, 0, 0" stroke="#000" stroke-opacity="0.02" fill-opacity="0.098" fill="#222" transform="translate(235.66666666667, 202) scale(-1, -1)" /><polyline points="0, 0, 33.666666666667, 33.666666666667, 0, 33.666666666667, 0, 0" stroke="#000" stroke-opacity="0.02" fill-opacity="0.098" fill="#222" transform="translate(235.66666666667, 134.66666666667) scale(1, 1)" /><polyline points="0, 0, 33.666666666667, 33.666666666667, 0, 33.666666666667, 0, 0" stroke="#000" stroke-opacity="0.02" fill-opacity="0.098" fill="#222" transform="translate(33.666666666667, 202) scale(-1, 1)" /><polyline points="0, 0, 33.666666666667, 33.666666666667, 0, 33.666666666667, 0, 0" stroke="#000" stroke-opacity="0.02" fill-opacity="0.098" fill="#222" transform="translate(33.666666666667, 269.33333333333) scale(1, -1)" /><polyline points="0, 0, 33.666666666667, 33.666666666667, 0, 33.666666666667, 0, 0" stroke="#000" stroke-opacity="0.02" fill-opacity="0.124" fill="#ddd" transform="translate(33.666666666667, 269.33333333333) scale(-1, -1)" /><polyline points="0, 0, 33.666666666667, 33.666666666667, 0, 33.666666666667, 0, 0" stroke="#000" stroke-opacity="0.02" fill-opacity="0.124" fill="#ddd" transform="translate(33.666666666667, 202) scale(1, 1)" /><polyline points="0, 0, 33.666666666667, 33.666666666667, 0, 33.666666666667, 0, 0" stroke="#000" stroke-opacity="0.02" fill-opacity="0.124" fill="#ddd" transform="translate(67.333333333333, 235.66666666667) scale(1, -1)" /><polyline points="0, 0, 33.666666666667, 33.666666666667, 0, 33.666666666667, 0, 0" stroke="#000" stroke-opacity="0.02" fill-opacity="0.124" fill="#ddd" transform="translate(134.66666666667, 235.66666666667) scale(-1, -1)" /><polyline points="0, 0, 33.666666666667, 33.666666666667, 0, 33.666666666667, 0, 0" stroke="#000" stroke-opacity="0.02" fill-opacity="0.124" fill="#ddd" transform="translate(67.333333333333, 235.66666666667) scale(1, 1)" /><polyline points="0, 0, 33.666666666667, 33.666666666667, 0, 33.666666666667, 0, 0" stroke="#000" stroke-opacity="0.02" fill-opacity="0.124" fill="#ddd" transform="translate(134.66666666667, 235.66666666667) scale(-1, 1)" /><polyline points="0, 0, 33.666666666667, 33.666666666667, 0, 33.666666666667, 0, 0" stroke="#000" stroke-opacity="0.02" fill-opacity="0.046" fill="#222" transform="translate(168.33333333333, 202) scale(-1, 1)" /><polyline points="0, 0, 33.666666666667, 33.666666666667, 0, 33.666666666667, 0, 0" stroke="#000" stroke-opacity="0.02" fill-opacity="0.046" fill="#222" transform="translate(168.33333333333, 269.33333333333) scale(1, -1)" /><polyline points="0, 0, 33.666666666667, 33.666666666667, 0, 33.666666666667, 0, 0" stroke="#000" stroke-opacity="0.02" fill-opacity="0.11533333333333" fill="#222" transform="translate(168.33333333333, 269.33333333333) scale(-1, -1)" /><polyline points="0, 0, 33.666666666667, 33.666666666667, 0, 33.666666666667, 0, 0" stroke="#000" stroke-opacity="0.02" fill-opacity="0.11533333333333" fill="#222" transform="translate(168.33333333333, 202) scale(1, 1)" /><polyline points="0, 0, 33.666666666667, 33.666666666667, 0, 33.666666666667, 0, 0" stroke="#000" stroke-opacity="0.02" fill-opacity="0.11533333333333" fill="#222" transform="translate(202, 235.66666666667) scale(1, -1)" /><polyline points="0, 0, 33.666666666667, 33.666666666667, 0, 33.666666666667, 0, 0" stroke="#000" stroke-opacity="0.02" fill-opacity="0.11533333333333" fill="#222" transform="translate(269.33333333333, 235.66666666667) scale(-1, -1)" /><polyline points="0, 0, 33.666666666667, 33.666666666667, 0, 33.666666666667, 0, 0" stroke="#000" stroke-opacity="0.02" fill-opacity="0.11533333333333" fill="#222" transform="translate(202, 235.66666666667) scale(1, 1)" /><polyline points="0, 0, 33.666666666667, 33.666666666667, 0, 33.666666666667, 0, 0" stroke="#000" stroke-opacity="0.02" fill-opacity="0.11533333333333" fill="#222" transform="translate(269.33333333333, 235.66666666667) scale(-1, 1)" /></svg>