<?xml version="1.0"?><svg xmlns="http://www.w3.org/2000/svg" width="152" height="152"><rect x="0" y="0" width="100%" height="100%" fill="rgb(108, 92, 231)" /><g fill="#ddd" style="opacity:0.089333333333333;" transform="translate(-25.461, -25.461) rotate(45, 25.461, 25.461)" ><rect x="18" y="0" width="18" height="54" /><rect x="0" y="18" width="54" height="18" /></g><g fill="#ddd" style="opacity:0.089333333333333;" transform="translate(127.305, -25.461) rotate(45, 25.461, 25.461)" ><rect x="18" y="0" width="18" height="54" /><rect x="0" y="18" width="54" height="18" /></g><g fill="#ddd" style="opacity:0.089333333333333;" transform="translate(-25.461, 127.305) rotate(45, 25.461, 25.461)" ><rect x="18" y="0" width="18" height="54" /><rect x="0" y="18" width="54" height="18" /></g><g fill="#ddd" style="opacity:0.089333333333333;" transform="translate(127.305, 127.305) rotate(45, 25.461, 25.461" ><rect x="18" y="0" width="18" height="54" /><rect x="0" y="18" width="54" height="18" /></g><g fill="#222" style="opacity:0.028666666666667;" transform="translate(0, -12.7305) rotate(45, 25.461, 25.461)" ><rect x="18" y="0" width="18" height="54" /><rect x="0" y="18" width="54" height="18" /></g><g fill="#222" style="opacity:0.028666666666667;" transform="translate(0, 140.0355) rotate(45, 25.461, 25.461)" ><rect x="18" y="0" width="18" height="54" /><rect x="0" y="18" width="54" height="18" /></g><g fill="#222" style="opacity:0.15;" transform="translate(25.461, -25.461) rotate(45, 25.461, 25.461)" ><rect x="18" y="0" width="18" height="54" /><rect x="0" y="18" width="54" height="18" /></g><g fill="#222" style="opacity:0.15;" transform="translate(25.461, 127.305) rotate(45, 25.461, 25.461)" ><rect x="18" y="0" width="18" height="54" /><rect x="0" y="18" width="54" height="18" /></g><g fill="#222" style="opacity:0.13266666666667;" transform="translate(50.922, -12.7305) rotate(45, 25.461, 25.461)" ><rect x="18" y="0" width="18" height="54" /><rect x="0" y="18" width="54" height="18" /></g><g fill="#222" style="opacity:0.13266666666667;" transform="translate(50.922, 140.0355) rotate(45, 25.461, 25.461)" ><rect x="18" y="0" width="18" height="54" /><rect x="0" y="18" width="54" height="18" /></g><g fill="#ddd" style="opacity:0.14133333333333;" transform="translate(76.383, -25.461) rotate(45, 25.461, 25.461)" ><rect x="18" y="0" width="18" height="54" /><rect x="0" y="18" width="54" height="18" /></g><g fill="#ddd" style="opacity:0.14133333333333;" transform="translate(76.383, 127.305) rotate(45, 25.461, 25.461)" ><rect x="18" y="0" width="18" height="54" /><rect x="0" y="18" width="54" height="18" /></g><g fill="#222" style="opacity:0.15;" transform="translate(101.844, -12.7305) rotate(45, 25.461, 25.461)" ><rect x="18" y="0" width="18" height="54" /><rect x="0" y="18" width="54" height="18" /></g><g fill="#222" style="opacity:0.15;" transform="translate(101.844, 140.0355) rotate(45, 25.461, 25.461)" ><rect x="18" y="0" width="18" height="54" /><rect x="0" y="18" width="54" height="18" /></g><g fill="#ddd" style="opacity:0.02;" transform="translate(-25.461, 0) rotate(45, 25.461, 25.461)" ><rect x="18" y="0" width="18" height="54" /><rect x="0" y="18" width="54" height="18" /></g><g fill="#ddd" style="opacity:0.02;" transform="translate(127.305, 0) rotate(45, 25.461, 25.461)" ><rect x="18" y="0" width="18" height="54" /><rect x="0" y="18" width="54" height="18" /></g><g fill="#222" style="opacity:0.063333333333333;" transform="translate(0, 12.7305) rotate(45, 25.461, 25.461)" ><rect x="18" y="0" width="18" height="54" /><rect x="0" y="18" width="54" height="18" /></g><g fill="#ddd" style="opacity:0.037333333333333;" transform="translate(25.461, 0) rotate(45, 25.461, 25.461)" ><rect x="18" y="0" width="18" height="54" /><rect x="0" y="18" width="54" height="18" /></g><g fill="#ddd" style="opacity:0.037333333333333;" transform="translate(50.922, 12.7305) rotate(45, 25.461, 25.461)" ><rect x="18" y="0" width="18" height="54" /><rect x="0" y="18" width="54" height="18" /></g><g fill="#ddd" style="opacity:0.089333333333333;" transform="translate(76.383, 0) rotate(45, 25.461, 25.461)" ><rect x="18" y="0" width="18" height="54" /><rect x="0" y="18" width="54" height="18" /></g><g fill="#ddd" style="opacity:0.072;" transform="translate(101.844, 12.7305) rotate(45, 25.461, 25.461)" ><rect x="18" y="0" width="18" height="54" /><rect x="0" y="18" width="54" height="18" /></g><g fill="#222" style="opacity:0.13266666666667;" transform="translate(-25.461, 25.461) rotate(45, 25.461, 25.461)" ><rect x="18" y="0" width="18" height="54" /><rect x="0" y="18" width="54" height="18" /></g><g fill="#222" style="opacity:0.13266666666667;" transform="translate(127.305, 25.461) rotate(45, 25.461, 25.461)" ><rect x="18" y="0" width="18" height="54" /><rect x="0" y="18" width="54" height="18" /></g><g fill="#222" style="opacity:0.11533333333333;" transform="translate(0, 38.1915) rotate(45, 25.461, 25.461)" ><rect x="18" y="0" width="18" height="54" /><rect x="0" y="18" width="54" height="18" /></g><g fill="#ddd" style="opacity:0.14133333333333;" transform="translate(25.461, 25.461) rotate(45, 25.461, 25.461)" ><rect x="18" y="0" width="18" height="54" /><rect x="0" y="18" width="54" height="18" /></g><g fill="#222" style="opacity:0.15;" transform="translate(50.922, 38.1915) rotate(45, 25.461, 25.461)" ><rect x="18" y="0" width="18" height="54" /><rect x="0" y="18" width="54" height="18" /></g><g fill="#222" style="opacity:0.15;" transform="translate(76.383, 25.461) rotate(45, 25.461, 25.461)" ><rect x="18" y="0" width="18" height="54" /><rect x="0" y="18" width="54" height="18" /></g><g fill="#222" style="opacity:0.11533333333333;" transform="translate(101.844, 38.1915) rotate(45, 25.461, 25.461)" ><rect x="18" y="0" width="18" height="54" /><rect x="0" y="18" width="54" height="18" /></g><g fill="#ddd" style="opacity:0.02;" transform="translate(-25.461, 50.922) rotate(45, 25.461, 25.461)" ><rect x="18" y="0" width="18" height="54" /><rect x="0" y="18" width="54" height="18" /></g><g fill="#ddd" style="opacity:0.02;" transform="translate(127.305, 50.922) rotate(45, 25.461, 25.461)" ><rect x="18" y="0" width="18" height="54" /><rect x="0" y="18" width="54" height="18" /></g><g fill="#ddd" style="opacity:0.072;" transform="translate(0, 63.6525) rotate(45, 25.461, 25.461)" ><rect x="18" y="0" width="18" height="54" /><rect x="0" y="18" width="54" height="18" /></g><g fill="#222" style="opacity:0.046;" transform="translate(25.461, 50.922) rotate(45, 25.461, 25.461)" ><rect x="18" y="0" width="18" height="54" /><rect x="0" y="18" width="54" height="18" /></g><g fill="#ddd" style="opacity:0.02;" transform="translate(50.922, 63.6525) rotate(45, 25.461, 25.461)" ><rect x="18" y="0" width="18" height="54" /><rect x="0" y="18" width="54" height="18" /></g><g fill="#ddd" style="opacity:0.089333333333333;" transform="translate(76.383, 50.922) rotate(45, 25.461, 25.461)" ><rect x="18" y="0" width="18" height="54" /><rect x="0" y="18" width="54" height="18" /></g><g fill="#222" style="opacity:0.028666666666667;" transform="translate(101.844, 63.6525) rotate(45, 25.461, 25.461)" ><rect x="18" y="0" width="18" height="54" /><rect x="0" y="18" width="54" height="18" /></g><g fill="#ddd" style="opacity:0.037333333333333;" transform="translate(-25.461, 76.383) rotate(45, 25.461, 25.461)" ><rect x="18" y="0" width="18" height="54" /><rect x="0" y="18" width="54" height="18" /></g><g fill="#ddd" style="opacity:0.037333333333333;" transform="translate(127.305, 76.383) rotate(45, 25.461, 25.461)" ><rect x="18" y="0" width="18" height="54" /><rect x="0" y="18" width="54" height="18" /></g><g fill="#222" style="opacity:0.13266666666667;" transform="translate(0, 89.1135) rotate(45, 25.461, 25.461)" ><rect x="18" y="0" width="18" height="54" /><rect x="0" y="18" width="54" height="18" /></g><g fill="#ddd" style="opacity:0.054666666666667;" transform="translate(25.461, 76.383) rotate(45, 25.461, 25.461)" ><rect x="18" y="0" width="18" height="54" /><rect x="0" y="18" width="54" height="18" /></g><g fill="#ddd" style="opacity:0.02;" transform="translate(50.922, 89.1135) rotate(45, 25.461, 25.461)" ><rect x="18" y="0" width="18" height="54" /><rect x="0" y="18" width="54" height="18" /></g><g fill="#222" style="opacity:0.11533333333333;" transform="translate(76.383, 76.383) rotate(45, 25.461, 25.461)" ><rect x="18" y="0" width="18" height="54" /><rect x="0" y="18" width="54" height="18" /></g><g fill="#ddd" style="opacity:0.089333333333333;" transform="translate(101.844, 89.1135) rotate(45, 25.461, 25.461)" ><rect x="18" y="0" width="18" height="54" /><rect x="0" y="18" width="54" height="18" /></g><g fill="#ddd" style="opacity:0.054666666666667;" transform="translate(-25.461, 101.844) rotate(45, 25.461, 25.461)" ><rect x="18" y="0" width="18" height="54" /><rect x="0" y="18" width="54" height="18" /></g><g fill="#ddd" style="opacity:0.054666666666667;" transform="translate(127.305, 101.844) rotate(45, 25.461, 25.461)" ><rect x="18" y="0" width="18" height="54" /><rect x="0" y="18" width="54" height="18" /></g><g fill="#ddd" style="opacity:0.054666666666667;" transform="translate(-25.461, -50.922) rotate(45, 25.461, 25.461)" ><rect x="18" y="0" width="18" height="54" /><rect x="0" y="18" width="54" height="18" /></g><g fill="#ddd" style="opacity:0.10666666666667;" transform="translate(0, 114.5745) rotate(45, 25.461, 25.461)" ><rect x="18" y="0" width="18" height="54" /><rect x="0" y="18" width="54" height="18" /></g><g fill="#ddd" style="opacity:0.10666666666667;" transform="translate(0, -38.1915) rotate(45, 25.461, 25.461)" ><rect x="18" y="0" width="18" height="54" /><rect x="0" y="18" width="54" height="18" /></g><g fill="#ddd" style="opacity:0.02;" transform="translate(25.461, 101.844) rotate(45, 25.461, 25.461)" ><rect x="18" y="0" width="18" height="54" /><rect x="0" y="18" width="54" height="18" /></g><g fill="#ddd" style="opacity:0.02;" transform="translate(25.461, -50.922) rotate(45, 25.461, 25.461)" ><rect x="18" y="0" width="18" height="54" /><rect x="0" y="18" width="54" height="18" /></g><g fill="#222" style="opacity:0.15;" transform="translate(50.922, 114.5745) rotate(45, 25.461, 25.461)" ><rect x="18" y="0" width="18" height="54" /><rect x="0" y="18" width="54" height="18" /></g><g fill="#222" style="opacity:0.15;" transform="translate(50.922, -38.1915) rotate(45, 25.461, 25.461)" ><rect x="18" y="0" width="18" height="54" /><rect x="0" y="18" width="54" height="18" /></g><g fill="#ddd" style="opacity:0.124;" transform="translate(76.383, 101.844) rotate(45, 25.461, 25.461)" ><rect x="18" y="0" width="18" height="54" /><rect x="0" y="18" width="54" height="18" /></g><g fill="#ddd" style="opacity:0.124;" transform="translate(76.383, -50.922) rotate(45, 25.461, 25.461)" ><rect x="18" y="0" width="18" height="54" /><rect x="0" y="18" width="54" height="18" /></g><g fill="#ddd" style="opacity:0.037333333333333;" transform="translate(101.844, 114.5745) rotate(45, 25.461, 25.461)" ><rect x="18" y="0" width="18" height="54" /><rect x="0" y="18" width="54" height="18" /></g><g fill="#ddd" style="opacity:0.037333333333333;" transform="translate(101.844, -38.1915) rotate(45, 25.461, 25.461)" ><rect x="18" y="0" width="18" height="54" /><rect x="0" y="18" width="54" height="18" /></g></svg>