<?xml version="1.0"?><svg xmlns="http://www.w3.org/2000/svg" width="60" height="60"><rect x="0" y="0" width="100%" height="100%" fill="rgb(253, 203, 110)" /><rect x="0" y="0" width="10" height="10" fill="#ddd" fill-opacity="0.02" stroke="#000" stroke-opacity="0.02" /><rect x="10" y="0" width="10" height="10" fill="#222" fill-opacity="0.063333333333333" stroke="#000" stroke-opacity="0.02" /><rect x="20" y="0" width="10" height="10" fill="#222" fill-opacity="0.080666666666667" stroke="#000" stroke-opacity="0.02" /><rect x="30" y="0" width="10" height="10" fill="#ddd" fill-opacity="0.02" stroke="#000" stroke-opacity="0.02" /><rect x="40" y="0" width="10" height="10" fill="#ddd" fill-opacity="0.02" stroke="#000" stroke-opacity="0.02" /><rect x="50" y="0" width="10" height="10" fill="#222" fill-opacity="0.080666666666667" stroke="#000" stroke-opacity="0.02" /><rect x="0" y="10" width="10" height="10" fill="#ddd" fill-opacity="0.054666666666667" stroke="#000" stroke-opacity="0.02" /><rect x="10" y="10" width="10" height="10" fill="#222" fill-opacity="0.098" stroke="#000" stroke-opacity="0.02" /><rect x="20" y="10" width="10" height="10" fill="#ddd" fill-opacity="0.02" stroke="#000" stroke-opacity="0.02" /><rect x="30" y="10" width="10" height="10" fill="#222" fill-opacity="0.028666666666667" stroke="#000" stroke-opacity="0.02" /><rect x="40" y="10" width="10" height="10" fill="#222" fill-opacity="0.028666666666667" stroke="#000" stroke-opacity="0.02" /><rect x="50" y="10" width="10" height="10" fill="#222" fill-opacity="0.098" stroke="#000" stroke-opacity="0.02" /><rect x="0" y="20" width="10" height="10" fill="#ddd" fill-opacity="0.072" stroke="#000" stroke-opacity="0.02" /><rect x="10" y="20" width="10" height="10" fill="#ddd" fill-opacity="0.037333333333333" stroke="#000" stroke-opacity="0.02" /><rect x="20" y="20" width="10" height="10" fill="#222" fill-opacity="0.063333333333333" stroke="#000" stroke-opacity="0.02" /><rect x="30" y="20" width="10" height="10" fill="#222" fill-opacity="0.063333333333333" stroke="#000" stroke-opacity="0.02" /><rect x="40" y="20" width="10" height="10" fill="#222" fill-opacity="0.13266666666667" stroke="#000" stroke-opacity="0.02" /><rect x="50" y="20" width="10" height="10" fill="#222" fill-opacity="0.098" stroke="#000" stroke-opacity="0.02" /><rect x="0" y="30" width="10" height="10" fill="#222" fill-opacity="0.028666666666667" stroke="#000" stroke-opacity="0.02" /><rect x="10" y="30" width="10" height="10" fill="#ddd" fill-opacity="0.14133333333333" stroke="#000" stroke-opacity="0.02" /><rect x="20" y="30" width="10" height="10" fill="#222" fill-opacity="0.098" stroke="#000" stroke-opacity="0.02" /><rect x="30" y="30" width="10" height="10" fill="#222" fill-opacity="0.098" stroke="#000" stroke-opacity="0.02" /><rect x="40" y="30" width="10" height="10" fill="#222" fill-opacity="0.15" stroke="#000" stroke-opacity="0.02" /><rect x="50" y="30" width="10" height="10" fill="#222" fill-opacity="0.13266666666667" stroke="#000" stroke-opacity="0.02" /><rect x="0" y="40" width="10" height="10" fill="#ddd" fill-opacity="0.054666666666667" stroke="#000" stroke-opacity="0.02" /><rect x="10" y="40" width="10" height="10" fill="#222" fill-opacity="0.098" stroke="#000" stroke-opacity="0.02" /><rect x="20" y="40" width="10" height="10" fill="#ddd" fill-opacity="0.124" stroke="#000" stroke-opacity="0.02" /><rect x="30" y="40" width="10" height="10" fill="#ddd" fill-opacity="0.037333333333333" stroke="#000" stroke-opacity="0.02" /><rect x="40" y="40" width="10" height="10" fill="#222" fill-opacity="0.11533333333333" stroke="#000" stroke-opacity="0.02" /><rect x="50" y="40" width="10" height="10" fill="#ddd" fill-opacity="0.037333333333333" stroke="#000" stroke-opacity="0.02" /><rect x="0" y="50" width="10" height="10" fill="#222" fill-opacity="0.028666666666667" stroke="#000" stroke-opacity="0.02" /><rect x="10" y="50" width="10" height="10" fill="#222" fill-opacity="0.028666666666667" stroke="#000" stroke-opacity="0.02" /><rect x="20" y="50" width="10" height="10" fill="#222" fill-opacity="0.098" stroke="#000" stroke-opacity="0.02" /><rect x="30" y="50" width="10" height="10" fill="#222" fill-opacity="0.046" stroke="#000" stroke-opacity="0.02" /><rect x="40" y="50" width="10" height="10" fill="#ddd" fill-opacity="0.089333333333333" stroke="#000" stroke-opacity="0.02" /><rect x="50" y="50" width="10" height="10" fill="#ddd" fill-opacity="0.072" stroke="#000" stroke-opacity="0.02" /></svg>