<?xml version="1.0"?><svg xmlns="http://www.w3.org/2000/svg" width="120" height="120"><rect x="0" y="0" width="100%" height="100%" fill="rgb(116, 185, 255)" /><polyline points="6.6,0,13.4,0,20,6.6,20,13.4,13.4,20,6.6,20,0,13.4,0,6.6,6.6,0" fill="#222" fill-opacity="0.046" stroke="#000" stroke-opacity="0.02" transform="translate(0, 0)" /><polyline points="6.6,0,13.4,0,20,6.6,20,13.4,13.4,20,6.6,20,0,13.4,0,6.6,6.6,0" fill="#222" fill-opacity="0.063333333333333" stroke="#000" stroke-opacity="0.02" transform="translate(20, 0)" /><polyline points="6.6,0,13.4,0,20,6.6,20,13.4,13.4,20,6.6,20,0,13.4,0,6.6,6.6,0" fill="#222" fill-opacity="0.11533333333333" stroke="#000" stroke-opacity="0.02" transform="translate(40, 0)" /><polyline points="6.6,0,13.4,0,20,6.6,20,13.4,13.4,20,6.6,20,0,13.4,0,6.6,6.6,0" fill="#222" fill-opacity="0.028666666666667" stroke="#000" stroke-opacity="0.02" transform="translate(60, 0)" /><polyline points="6.6,0,13.4,0,20,6.6,20,13.4,13.4,20,6.6,20,0,13.4,0,6.6,6.6,0" fill="#222" fill-opacity="0.046" stroke="#000" stroke-opacity="0.02" transform="translate(80, 0)" /><polyline points="6.6,0,13.4,0,20,6.6,20,13.4,13.4,20,6.6,20,0,13.4,0,6.6,6.6,0" fill="#ddd" fill-opacity="0.14133333333333" stroke="#000" stroke-opacity="0.02" transform="translate(100, 0)" /><polyline points="6.6,0,13.4,0,20,6.6,20,13.4,13.4,20,6.6,20,0,13.4,0,6.6,6.6,0" fill="#ddd" fill-opacity="0.089333333333333" stroke="#000" stroke-opacity="0.02" transform="translate(0, 20)" /><polyline points="6.6,0,13.4,0,20,6.6,20,13.4,13.4,20,6.6,20,0,13.4,0,6.6,6.6,0" fill="#222" fill-opacity="0.046" stroke="#000" stroke-opacity="0.02" transform="translate(20, 20)" /><polyline points="6.6,0,13.4,0,20,6.6,20,13.4,13.4,20,6.6,20,0,13.4,0,6.6,6.6,0" fill="#ddd" fill-opacity="0.054666666666667" stroke="#000" stroke-opacity="0.02" transform="translate(40, 20)" /><polyline points="6.6,0,13.4,0,20,6.6,20,13.4,13.4,20,6.6,20,0,13.4,0,6.6,6.6,0" fill="#ddd" fill-opacity="0.037333333333333" stroke="#000" stroke-opacity="0.02" transform="translate(60, 20)" /><polyline points="6.6,0,13.4,0,20,6.6,20,13.4,13.4,20,6.6,20,0,13.4,0,6.6,6.6,0" fill="#222" fill-opacity="0.063333333333333" stroke="#000" stroke-opacity="0.02" transform="translate(80, 20)" /><polyline points="6.6,0,13.4,0,20,6.6,20,13.4,13.4,20,6.6,20,0,13.4,0,6.6,6.6,0" fill="#222" fill-opacity="0.098" stroke="#000" stroke-opacity="0.02" transform="translate(100, 20)" /><polyline points="6.6,0,13.4,0,20,6.6,20,13.4,13.4,20,6.6,20,0,13.4,0,6.6,6.6,0" fill="#ddd" fill-opacity="0.02" stroke="#000" stroke-opacity="0.02" transform="translate(0, 40)" /><polyline points="6.6,0,13.4,0,20,6.6,20,13.4,13.4,20,6.6,20,0,13.4,0,6.6,6.6,0" fill="#222" fill-opacity="0.11533333333333" stroke="#000" stroke-opacity="0.02" transform="translate(20, 40)" /><polyline points="6.6,0,13.4,0,20,6.6,20,13.4,13.4,20,6.6,20,0,13.4,0,6.6,6.6,0" fill="#ddd" fill-opacity="0.10666666666667" stroke="#000" stroke-opacity="0.02" transform="translate(40, 40)" /><polyline points="6.6,0,13.4,0,20,6.6,20,13.4,13.4,20,6.6,20,0,13.4,0,6.6,6.6,0" fill="#ddd" fill-opacity="0.10666666666667" stroke="#000" stroke-opacity="0.02" transform="translate(60, 40)" /><polyline points="6.6,0,13.4,0,20,6.6,20,13.4,13.4,20,6.6,20,0,13.4,0,6.6,6.6,0" fill="#ddd" fill-opacity="0.124" stroke="#000" stroke-opacity="0.02" transform="translate(80, 40)" /><polyline points="6.6,0,13.4,0,20,6.6,20,13.4,13.4,20,6.6,20,0,13.4,0,6.6,6.6,0" fill="#ddd" fill-opacity="0.054666666666667" stroke="#000" stroke-opacity="0.02" transform="translate(100, 40)" /><polyline points="6.6,0,13.4,0,20,6.6,20,13.4,13.4,20,6.6,20,0,13.4,0,6.6,6.6,0" fill="#ddd" fill-opacity="0.054666666666667" stroke="#000" stroke-opacity="0.02" transform="translate(0, 60)" /><polyline points="6.6,0,13.4,0,20,6.6,20,13.4,13.4,20,6.6,20,0,13.4,0,6.6,6.6,0" fill="#ddd" fill-opacity="0.14133333333333" stroke="#000" stroke-opacity="0.02" transform="translate(20, 60)" /><polyline points="6.6,0,13.4,0,20,6.6,20,13.4,13.4,20,6.6,20,0,13.4,0,6.6,6.6,0" fill="#ddd" fill-opacity="0.02" stroke="#000" stroke-opacity="0.02" transform="translate(40, 60)" /><polyline points="6.6,0,13.4,0,20,6.6,20,13.4,13.4,20,6.6,20,0,13.4,0,6.6,6.6,0" fill="#222" fill-opacity="0.080666666666667" stroke="#000" stroke-opacity="0.02" transform="translate(60, 60)" /><polyline points="6.6,0,13.4,0,20,6.6,20,13.4,13.4,20,6.6,20,0,13.4,0,6.6,6.6,0" fill="#222" fill-opacity="0.15" stroke="#000" stroke-opacity="0.02" transform="translate(80, 60)" /><polyline points="6.6,0,13.4,0,20,6.6,20,13.4,13.4,20,6.6,20,0,13.4,0,6.6,6.6,0" fill="#ddd" fill-opacity="0.02" stroke="#000" stroke-opacity="0.02" transform="translate(100, 60)" /><polyline points="6.6,0,13.4,0,20,6.6,20,13.4,13.4,20,6.6,20,0,13.4,0,6.6,6.6,0" fill="#222" fill-opacity="0.11533333333333" stroke="#000" stroke-opacity="0.02" transform="translate(0, 80)" /><polyline points="6.6,0,13.4,0,20,6.6,20,13.4,13.4,20,6.6,20,0,13.4,0,6.6,6.6,0" fill="#222" fill-opacity="0.080666666666667" stroke="#000" stroke-opacity="0.02" transform="translate(20, 80)" /><polyline points="6.6,0,13.4,0,20,6.6,20,13.4,13.4,20,6.6,20,0,13.4,0,6.6,6.6,0" fill="#222" fill-opacity="0.080666666666667" stroke="#000" stroke-opacity="0.02" transform="translate(40, 80)" /><polyline points="6.6,0,13.4,0,20,6.6,20,13.4,13.4,20,6.6,20,0,13.4,0,6.6,6.6,0" fill="#ddd" fill-opacity="0.14133333333333" stroke="#000" stroke-opacity="0.02" transform="translate(60, 80)" /><polyline points="6.6,0,13.4,0,20,6.6,20,13.4,13.4,20,6.6,20,0,13.4,0,6.6,6.6,0" fill="#ddd" fill-opacity="0.10666666666667" stroke="#000" stroke-opacity="0.02" transform="translate(80, 80)" /><polyline points="6.6,0,13.4,0,20,6.6,20,13.4,13.4,20,6.6,20,0,13.4,0,6.6,6.6,0" fill="#222" fill-opacity="0.15" stroke="#000" stroke-opacity="0.02" transform="translate(100, 80)" /><polyline points="6.6,0,13.4,0,20,6.6,20,13.4,13.4,20,6.6,20,0,13.4,0,6.6,6.6,0" fill="#222" fill-opacity="0.15" stroke="#000" stroke-opacity="0.02" transform="translate(0, 100)" /><polyline points="6.6,0,13.4,0,20,6.6,20,13.4,13.4,20,6.6,20,0,13.4,0,6.6,6.6,0" fill="#222" fill-opacity="0.15" stroke="#000" stroke-opacity="0.02" transform="translate(20, 100)" /><polyline points="6.6,0,13.4,0,20,6.6,20,13.4,13.4,20,6.6,20,0,13.4,0,6.6,6.6,0" fill="#222" fill-opacity="0.028666666666667" stroke="#000" stroke-opacity="0.02" transform="translate(40, 100)" /><polyline points="6.6,0,13.4,0,20,6.6,20,13.4,13.4,20,6.6,20,0,13.4,0,6.6,6.6,0" fill="#ddd" fill-opacity="0.072" stroke="#000" stroke-opacity="0.02" transform="translate(60, 100)" /><polyline points="6.6,0,13.4,0,20,6.6,20,13.4,13.4,20,6.6,20,0,13.4,0,6.6,6.6,0" fill="#ddd" fill-opacity="0.072" stroke="#000" stroke-opacity="0.02" transform="translate(80, 100)" /><polyline points="6.6,0,13.4,0,20,6.6,20,13.4,13.4,20,6.6,20,0,13.4,0,6.6,6.6,0" fill="#222" fill-opacity="0.13266666666667" stroke="#000" stroke-opacity="0.02" transform="translate(100, 100)" /></svg>