<?xml version="1.0"?><svg xmlns="http://www.w3.org/2000/svg" width="250" height="250"><rect x="0" y="0" width="100%" height="100%" fill="rgb(116, 185, 255)" /><circle cx="0" cy="0" r="41.666666666667" fill="#222" style="opacity:0.063333333333333;" /><circle cx="250" cy="0" r="41.666666666667" fill="#222" style="opacity:0.063333333333333;" /><circle cx="0" cy="250" r="41.666666666667" fill="#222" style="opacity:0.063333333333333;" /><circle cx="250" cy="250" r="41.666666666667" fill="#222" style="opacity:0.063333333333333;" /><circle cx="41.666666666667" cy="0" r="41.666666666667" fill="#ddd" style="opacity:0.037333333333333;" /><circle cx="41.666666666667" cy="250" r="41.666666666667" fill="#ddd" style="opacity:0.037333333333333;" /><circle cx="83.333333333333" cy="0" r="41.666666666667" fill="#222" style="opacity:0.098;" /><circle cx="83.333333333333" cy="250" r="41.666666666667" fill="#222" style="opacity:0.098;" /><circle cx="125" cy="0" r="41.666666666667" fill="#ddd" style="opacity:0.10666666666667;" /><circle cx="125" cy="250" r="41.666666666667" fill="#ddd" style="opacity:0.10666666666667;" /><circle cx="166.66666666667" cy="0" r="41.666666666667" fill="#ddd" style="opacity:0.124;" /><circle cx="166.66666666667" cy="250" r="41.666666666667" fill="#ddd" style="opacity:0.124;" /><circle cx="208.33333333333" cy="0" r="41.666666666667" fill="#ddd" style="opacity:0.054666666666667;" /><circle cx="208.33333333333" cy="250" r="41.666666666667" fill="#ddd" style="opacity:0.054666666666667;" /><circle cx="0" cy="41.666666666667" r="41.666666666667" fill="#ddd" style="opacity:0.124;" /><circle cx="250" cy="41.666666666667" r="41.666666666667" fill="#ddd" style="opacity:0.124;" /><circle cx="41.666666666667" cy="41.666666666667" r="41.666666666667" fill="#ddd" style="opacity:0.089333333333333;" /><circle cx="83.333333333333" cy="41.666666666667" r="41.666666666667" fill="#222" style="opacity:0.098;" /><circle cx="125" cy="41.666666666667" r="41.666666666667" fill="#222" style="opacity:0.063333333333333;" /><circle cx="166.66666666667" cy="41.666666666667" r="41.666666666667" fill="#222" style="opacity:0.028666666666667;" /><circle cx="208.33333333333" cy="41.666666666667" r="41.666666666667" fill="#222" style="opacity:0.098;" /><circle cx="0" cy="83.333333333333" r="41.666666666667" fill="#222" style="opacity:0.098;" /><circle cx="250" cy="83.333333333333" r="41.666666666667" fill="#222" style="opacity:0.098;" /><circle cx="41.666666666667" cy="83.333333333333" r="41.666666666667" fill="#222" style="opacity:0.11533333333333;" /><circle cx="83.333333333333" cy="83.333333333333" r="41.666666666667" fill="#222" style="opacity:0.028666666666667;" /><circle cx="125" cy="83.333333333333" r="41.666666666667" fill="#222" style="opacity:0.11533333333333;" /><circle cx="166.66666666667" cy="83.333333333333" r="41.666666666667" fill="#ddd" style="opacity:0.037333333333333;" /><circle cx="208.33333333333" cy="83.333333333333" r="41.666666666667" fill="#222" style="opacity:0.15;" /><circle cx="0" cy="125" r="41.666666666667" fill="#ddd" style="opacity:0.124;" /><circle cx="250" cy="125" r="41.666666666667" fill="#ddd" style="opacity:0.124;" /><circle cx="41.666666666667" cy="125" r="41.666666666667" fill="#ddd" style="opacity:0.02;" /><circle cx="83.333333333333" cy="125" r="41.666666666667" fill="#222" style="opacity:0.028666666666667;" /><circle cx="125" cy="125" r="41.666666666667" fill="#222" style="opacity:0.063333333333333;" /><circle cx="166.66666666667" cy="125" r="41.666666666667" fill="#ddd" style="opacity:0.054666666666667;" /><circle cx="208.33333333333" cy="125" r="41.666666666667" fill="#222" style="opacity:0.13266666666667;" /><circle cx="0" cy="166.66666666667" r="41.666666666667" fill="#ddd" style="opacity:0.072;" /><circle cx="250" cy="166.66666666667" r="41.666666666667" fill="#ddd" style="opacity:0.072;" /><circle cx="41.666666666667" cy="166.66666666667" r="41.666666666667" fill="#222" style="opacity:0.080666666666667;" /><circle cx="83.333333333333" cy="166.66666666667" r="41.666666666667" fill="#222" style="opacity:0.080666666666667;" /><circle cx="125" cy="166.66666666667" r="41.666666666667" fill="#ddd" style="opacity:0.089333333333333;" /><circle cx="166.66666666667" cy="166.66666666667" r="41.666666666667" fill="#ddd" style="opacity:0.02;" /><circle cx="208.33333333333" cy="166.66666666667" r="41.666666666667" fill="#ddd" style="opacity:0.10666666666667;" /><circle cx="0" cy="208.33333333333" r="41.666666666667" fill="#ddd" style="opacity:0.02;" /><circle cx="250" cy="208.33333333333" r="41.666666666667" fill="#ddd" style="opacity:0.02;" /><circle cx="41.666666666667" cy="208.33333333333" r="41.666666666667" fill="#ddd" style="opacity:0.089333333333333;" /><circle cx="83.333333333333" cy="208.33333333333" r="41.666666666667" fill="#ddd" style="opacity:0.072;" /><circle cx="125" cy="208.33333333333" r="41.666666666667" fill="#ddd" style="opacity:0.072;" /><circle cx="166.66666666667" cy="208.33333333333" r="41.666666666667" fill="#ddd" style="opacity:0.124;" /><circle cx="208.33333333333" cy="208.33333333333" r="41.666666666667" fill="#ddd" style="opacity:0.089333333333333;" /></svg>