<?xml version="1.0"?><svg xmlns="http://www.w3.org/2000/svg" width="460" height="460"><rect x="0" y="0" width="100%" height="100%" fill="rgb(9, 132, 227)" /><circle cx="0" cy="0" r="76.666666666667" fill="#222" style="opacity:0.11533333333333;" /><circle cx="460" cy="0" r="76.666666666667" fill="#222" style="opacity:0.11533333333333;" /><circle cx="0" cy="460" r="76.666666666667" fill="#222" style="opacity:0.11533333333333;" /><circle cx="460" cy="460" r="76.666666666667" fill="#222" style="opacity:0.11533333333333;" /><circle cx="76.666666666667" cy="0" r="76.666666666667" fill="#ddd" style="opacity:0.10666666666667;" /><circle cx="76.666666666667" cy="460" r="76.666666666667" fill="#ddd" style="opacity:0.10666666666667;" /><circle cx="153.33333333333" cy="0" r="76.666666666667" fill="#ddd" style="opacity:0.037333333333333;" /><circle cx="153.33333333333" cy="460" r="76.666666666667" fill="#ddd" style="opacity:0.037333333333333;" /><circle cx="230" cy="0" r="76.666666666667" fill="#222" style="opacity:0.028666666666667;" /><circle cx="230" cy="460" r="76.666666666667" fill="#222" style="opacity:0.028666666666667;" /><circle cx="306.66666666667" cy="0" r="76.666666666667" fill="#222" style="opacity:0.11533333333333;" /><circle cx="306.66666666667" cy="460" r="76.666666666667" fill="#222" style="opacity:0.11533333333333;" /><circle cx="383.33333333333" cy="0" r="76.666666666667" fill="#ddd" style="opacity:0.054666666666667;" /><circle cx="383.33333333333" cy="460" r="76.666666666667" fill="#ddd" style="opacity:0.054666666666667;" /><circle cx="0" cy="76.666666666667" r="76.666666666667" fill="#222" style="opacity:0.063333333333333;" /><circle cx="460" cy="76.666666666667" r="76.666666666667" fill="#222" style="opacity:0.063333333333333;" /><circle cx="76.666666666667" cy="76.666666666667" r="76.666666666667" fill="#222" style="opacity:0.028666666666667;" /><circle cx="153.33333333333" cy="76.666666666667" r="76.666666666667" fill="#ddd" style="opacity:0.089333333333333;" /><circle cx="230" cy="76.666666666667" r="76.666666666667" fill="#ddd" style="opacity:0.072;" /><circle cx="306.66666666667" cy="76.666666666667" r="76.666666666667" fill="#ddd" style="opacity:0.02;" /><circle cx="383.33333333333" cy="76.666666666667" r="76.666666666667" fill="#222" style="opacity:0.15;" /><circle cx="0" cy="153.33333333333" r="76.666666666667" fill="#222" style="opacity:0.063333333333333;" /><circle cx="460" cy="153.33333333333" r="76.666666666667" fill="#222" style="opacity:0.063333333333333;" /><circle cx="76.666666666667" cy="153.33333333333" r="76.666666666667" fill="#222" style="opacity:0.15;" /><circle cx="153.33333333333" cy="153.33333333333" r="76.666666666667" fill="#222" style="opacity:0.063333333333333;" /><circle cx="230" cy="153.33333333333" r="76.666666666667" fill="#222" style="opacity:0.063333333333333;" /><circle cx="306.66666666667" cy="153.33333333333" r="76.666666666667" fill="#222" style="opacity:0.13266666666667;" /><circle cx="383.33333333333" cy="153.33333333333" r="76.666666666667" fill="#ddd" style="opacity:0.02;" /><circle cx="0" cy="230" r="76.666666666667" fill="#222" style="opacity:0.15;" /><circle cx="460" cy="230" r="76.666666666667" fill="#222" style="opacity:0.15;" /><circle cx="76.666666666667" cy="230" r="76.666666666667" fill="#ddd" style="opacity:0.02;" /><circle cx="153.33333333333" cy="230" r="76.666666666667" fill="#222" style="opacity:0.028666666666667;" /><circle cx="230" cy="230" r="76.666666666667" fill="#ddd" style="opacity:0.10666666666667;" /><circle cx="306.66666666667" cy="230" r="76.666666666667" fill="#222" style="opacity:0.080666666666667;" /><circle cx="383.33333333333" cy="230" r="76.666666666667" fill="#ddd" style="opacity:0.037333333333333;" /><circle cx="0" cy="306.66666666667" r="76.666666666667" fill="#ddd" style="opacity:0.02;" /><circle cx="460" cy="306.66666666667" r="76.666666666667" fill="#ddd" style="opacity:0.02;" /><circle cx="76.666666666667" cy="306.66666666667" r="76.666666666667" fill="#ddd" style="opacity:0.14133333333333;" /><circle cx="153.33333333333" cy="306.66666666667" r="76.666666666667" fill="#ddd" style="opacity:0.124;" /><circle cx="230" cy="306.66666666667" r="76.666666666667" fill="#222" style="opacity:0.028666666666667;" /><circle cx="306.66666666667" cy="306.66666666667" r="76.666666666667" fill="#222" style="opacity:0.080666666666667;" /><circle cx="383.33333333333" cy="306.66666666667" r="76.666666666667" fill="#222" style="opacity:0.046;" /><circle cx="0" cy="383.33333333333" r="76.666666666667" fill="#ddd" style="opacity:0.072;" /><circle cx="460" cy="383.33333333333" r="76.666666666667" fill="#ddd" style="opacity:0.072;" /><circle cx="76.666666666667" cy="383.33333333333" r="76.666666666667" fill="#222" style="opacity:0.13266666666667;" /><circle cx="153.33333333333" cy="383.33333333333" r="76.666666666667" fill="#222" style="opacity:0.028666666666667;" /><circle cx="230" cy="383.33333333333" r="76.666666666667" fill="#222" style="opacity:0.063333333333333;" /><circle cx="306.66666666667" cy="383.33333333333" r="76.666666666667" fill="#222" style="opacity:0.046;" /><circle cx="383.33333333333" cy="383.33333333333" r="76.666666666667" fill="#ddd" style="opacity:0.089333333333333;" /></svg>